# xmcd CD database file
# Generated: Sun Apr 14 20:32:05 2002 by KSCD
# 
# Track frame offsets:
#       150
#       29485
#       55005
#       79757
#       99225
#       119112
#       146012
#       167440
#       182197
#       197762
#       212182
#       239370
#
# Disc length: 3614 seconds
#
# Revision: 2
# Processed by: cddbd v1.4PL0 Copyright (c) Steve Scherf et al.
# Submitted via: Kscd 1.3.0 (woembie)
#
DISCID=a90e1c0c
DTITLE=Tail Dragger - Crawlin' Kingsnake
DYEAR=1900
DGENRE=
TTITLE0=Don't Trust No Woman
TTITLE1=Country Boy
TTITLE2=Be Prepared
TTITLE3=I'm In The Mood
TTITLE4=Do The Do
TTITLE5=Cold Outdoors
TTITLE6=Crawlin' Kingsnake
TTITLE7=Monkey Blues
TTITLE8=Baby Please Don't Go
TTITLE9=Stop Lyin'
TTITLE10=Prison Blues
TTITLE11=Root Doctor
EXTD=St. George Records (C) 1996
EXTT0=
EXTT1=
EXTT2=
EXTT3=
EXTT4=
EXTT5=
EXTT6=
EXTT7=
EXTT8=
EXTT9=
EXTT10=
EXTT11=
PLAYORDER=
